<svg xmlns="http://www.w3.org/2000/svg" width="1500" height="1340" viewBox="0 0 1500 1340" font-family="Vazirmatn,Tahoma,Arial" direction="rtl">
<defs><radialGradient id="bg" cx="50%" cy="40%" r="80%"><stop offset="0%" stop-color="#232047"/><stop offset="100%" stop-color="#121022"/></radialGradient>
<linearGradient id="cc" x1="0" y1="0" x2="1" y2="1"><stop offset="0" stop-color="#ff4f8b"/><stop offset="1" stop-color="#a855f7"/></linearGradient></defs>
<rect width="1500" height="1340" rx="28" fill="url(#bg)"/>
<text x="750" y="52" text-anchor="middle" fill="#fff" font-size="30" font-weight="bold">نقشه ذهنی باهم ۱۰ 💎</text>
<text x="750" y="80" text-anchor="middle" fill="#b3b0d6" font-size="15">از مخ زدن تا ما شدن — وب‌اپلیکیشن PWA</text>
<line x1="750" y1="490" x2="1180" y2="400" stroke="#ff4f8b" stroke-width="3" opacity=".55"/>
<rect x="945" y="22" width="470" height="756" rx="18" fill="#ffffff10" stroke="#ff4f8b" stroke-width="2"/>
<rect x="945" y="22" width="470" height="46" rx="18" fill="#ff4f8b" opacity=".9"/>
<rect x="945" y="50" width="470" height="18" fill="#ff4f8b" opacity=".9"/>
<text x="1180" y="52" text-anchor="middle" fill="#fff" font-size="17" font-weight="bold">💑 فضای ما (۳۷ بخش)</text>
<rect x="1195" y="80" width="205" height="30" rx="15" fill="#ffffff14" stroke="#ff4f8b" stroke-width="1" opacity=".95"/>
<text x="1297" y="100" text-anchor="middle" fill="#eceafb" font-size="13">شمارنده رابطه</text>
<rect x="960" y="80" width="205" height="30" rx="15" fill="#ffffff14" stroke="#ff4f8b" stroke-width="1" opacity=".95"/>
<text x="1062" y="100" text-anchor="middle" fill="#eceafb" font-size="13">چت زوج + تماس</text>
<rect x="1195" y="115" width="205" height="30" rx="15" fill="#ffffff14" stroke="#ff4f8b" stroke-width="1" opacity=".95"/>
<text x="1297" y="135" text-anchor="middle" fill="#eceafb" font-size="13">خاطرات و آلبوم</text>
<rect x="960" y="115" width="205" height="30" rx="15" fill="#ffffff14" stroke="#ff4f8b" stroke-width="1" opacity=".95"/>
<text x="1062" y="135" text-anchor="middle" fill="#eceafb" font-size="13">تقویم پیشرفته</text>
<rect x="1195" y="150" width="205" height="30" rx="15" fill="#ffffff14" stroke="#ff4f8b" stroke-width="1" opacity=".95"/>
<text x="1297" y="170" text-anchor="middle" fill="#eceafb" font-size="13">یادداشت و چک‌لیست</text>
<rect x="960" y="150" width="205" height="30" rx="15" fill="#ffffff14" stroke="#ff4f8b" stroke-width="1" opacity=".95"/>
<text x="1062" y="170" text-anchor="middle" fill="#eceafb" font-size="13">آرزوها + سورپرایز مخفی</text>
<rect x="1195" y="185" width="205" height="30" rx="15" fill="#ffffff14" stroke="#ff4f8b" stroke-width="1" opacity=".95"/>
<text x="1297" y="205" text-anchor="middle" fill="#eceafb" font-size="13">باکت‌لیست</text>
<rect x="960" y="185" width="205" height="30" rx="15" fill="#ffffff14" stroke="#ff4f8b" stroke-width="1" opacity=".95"/>
<text x="1062" y="205" text-anchor="middle" fill="#eceafb" font-size="13">نامه مُهرشده</text>
<rect x="1195" y="220" width="205" height="30" rx="15" fill="#ffffff14" stroke="#ff4f8b" stroke-width="1" opacity=".95"/>
<text x="1297" y="240" text-anchor="middle" fill="#eceafb" font-size="13">سؤال روزانه</text>
<rect x="960" y="220" width="205" height="30" rx="15" fill="#ffffff14" stroke="#ff4f8b" stroke-width="1" opacity=".95"/>
<text x="1062" y="240" text-anchor="middle" fill="#eceafb" font-size="13">تایم‌لاین</text>
<rect x="1195" y="255" width="205" height="30" rx="15" fill="#ffffff14" stroke="#ff4f8b" stroke-width="1" opacity=".95"/>
<text x="1297" y="275" text-anchor="middle" fill="#eceafb" font-size="13">آهنگ‌های ما</text>
<rect x="960" y="255" width="205" height="30" rx="15" fill="#ffffff14" stroke="#ff4f8b" stroke-width="1" opacity=".95"/>
<text x="1062" y="275" text-anchor="middle" fill="#eceafb" font-size="13">دانگ و هزینه</text>
<rect x="1195" y="290" width="205" height="30" rx="15" fill="#ffffff14" stroke="#ff4f8b" stroke-width="1" opacity=".95"/>
<text x="1297" y="310" text-anchor="middle" fill="#eceafb" font-size="13">حال مشترک</text>
<rect x="960" y="290" width="205" height="30" rx="15" fill="#ffffff14" stroke="#ff4f8b" stroke-width="1" opacity=".95"/>
<text x="1062" y="310" text-anchor="middle" fill="#eceafb" font-size="13">بازی و چالش</text>
<rect x="1195" y="325" width="205" height="30" rx="15" fill="#ffffff14" stroke="#ff4f8b" stroke-width="1" opacity=".95"/>
<text x="1297" y="345" text-anchor="middle" fill="#eceafb" font-size="13">کتاب ما</text>
<rect x="960" y="325" width="205" height="30" rx="15" fill="#ffffff14" stroke="#ff4f8b" stroke-width="1" opacity=".95"/>
<text x="1062" y="345" text-anchor="middle" fill="#eceafb" font-size="13">آمار + مدال + نظرسنجی</text>
<rect x="1195" y="360" width="205" height="30" rx="15" fill="#ffffff14" stroke="#ff4f8b" stroke-width="1" opacity=".95"/>
<text x="1297" y="380" text-anchor="middle" fill="#eceafb" font-size="13">سفر مشترک</text>
<rect x="1195" y="395" width="205" height="30" rx="15" fill="#ffffff14" stroke="#ff4f8b" stroke-width="1" opacity=".95"/>
<text x="1297" y="415" text-anchor="middle" fill="#eceafb" font-size="13">گردونه شانس</text>
<rect x="960" y="395" width="205" height="30" rx="15" fill="#ffffff14" stroke="#ff4f8b" stroke-width="1" opacity=".95"/>
<text x="1062" y="415" text-anchor="middle" fill="#eceafb" font-size="13">کپسول زمان</text>
<rect x="1195" y="430" width="205" height="30" rx="15" fill="#ffffff14" stroke="#ff4f8b" stroke-width="1" opacity=".95"/>
<text x="1297" y="450" text-anchor="middle" fill="#eceafb" font-size="13">داستان زنجیره‌ای</text>
<rect x="960" y="430" width="205" height="30" rx="15" fill="#ffffff14" stroke="#ff4f8b" stroke-width="1" opacity=".95"/>
<text x="1062" y="450" text-anchor="middle" fill="#eceafb" font-size="13">چالش ۳۰ روزه</text>
<rect x="1195" y="465" width="205" height="30" rx="15" fill="#ffffff14" stroke="#ff4f8b" stroke-width="1" opacity=".95"/>
<text x="1297" y="485" text-anchor="middle" fill="#eceafb" font-size="13">پیکسل‌آرت</text>
<rect x="1195" y="500" width="205" height="30" rx="15" fill="#ffffff14" stroke="#ff4f8b" stroke-width="1" opacity=".95"/>
<text x="1297" y="520" text-anchor="middle" fill="#eceafb" font-size="13">پادکست ما</text>
<rect x="960" y="500" width="205" height="30" rx="15" fill="#ffffff14" stroke="#ff4f8b" stroke-width="1" opacity=".95"/>
<text x="1062" y="520" text-anchor="middle" fill="#eceafb" font-size="13">نقشه‌ی خاطرات</text>
<rect x="1195" y="535" width="205" height="30" rx="15" fill="#ffffff14" stroke="#ff4f8b" stroke-width="1" opacity=".95"/>
<text x="1297" y="555" text-anchor="middle" fill="#eceafb" font-size="13">قلک آرزو</text>
<rect x="1195" y="570" width="205" height="30" rx="15" fill="#ffffff14" stroke="#ff4f8b" stroke-width="1" opacity=".95"/>
<text x="1297" y="590" text-anchor="middle" fill="#eceafb" font-size="13">فیلم‌بین ما</text>
<rect x="960" y="570" width="205" height="30" rx="15" fill="#ffffff14" stroke="#ff4f8b" stroke-width="1" opacity=".95"/>
<text x="1062" y="590" text-anchor="middle" fill="#eceafb" font-size="13">آشپزخونه‌ی ما</text>
<rect x="1195" y="605" width="205" height="30" rx="15" fill="#ffffff14" stroke="#ff4f8b" stroke-width="1" opacity=".95"/>
<text x="1297" y="625" text-anchor="middle" fill="#eceafb" font-size="13">رویای مشترک</text>
<rect x="1195" y="640" width="205" height="30" rx="15" fill="#ffffff14" stroke="#ff4f8b" stroke-width="1" opacity=".95"/>
<text x="1297" y="660" text-anchor="middle" fill="#eceafb" font-size="13">چالش عکس</text>
<rect x="960" y="640" width="205" height="30" rx="15" fill="#ffffff14" stroke="#ff4f8b" stroke-width="1" opacity=".95"/>
<text x="1062" y="660" text-anchor="middle" fill="#eceafb" font-size="13">صندوق ماه</text>
<rect x="1195" y="675" width="205" height="30" rx="15" fill="#ffffff14" stroke="#ff4f8b" stroke-width="1" opacity=".95"/>
<text x="1297" y="695" text-anchor="middle" fill="#eceafb" font-size="13">شمارش‌های ما</text>
<rect x="1195" y="710" width="205" height="30" rx="15" fill="#ffffff14" stroke="#ff4f8b" stroke-width="1" opacity=".95"/>
<text x="1297" y="730" text-anchor="middle" fill="#eceafb" font-size="13">قانون‌های ما</text>
<rect x="960" y="710" width="205" height="30" rx="15" fill="#ffffff14" stroke="#ff4f8b" stroke-width="1" opacity=".95"/>
<text x="1062" y="730" text-anchor="middle" fill="#eceafb" font-size="13">سال ما</text>
<rect x="1195" y="745" width="205" height="30" rx="15" fill="#ffffff14" stroke="#ff4f8b" stroke-width="1" opacity=".95"/>
<text x="1297" y="765" text-anchor="middle" fill="#eceafb" font-size="13">تالار افتخار</text>
<line x1="750" y1="490" x2="1180" y2="900" stroke="#8b5cf6" stroke-width="3" opacity=".55"/>
<rect x="945" y="812" width="470" height="176" rx="18" fill="#ffffff10" stroke="#8b5cf6" stroke-width="2"/>
<rect x="945" y="812" width="470" height="46" rx="18" fill="#8b5cf6" opacity=".9"/>
<rect x="945" y="840" width="470" height="18" fill="#8b5cf6" opacity=".9"/>
<text x="1180" y="842" text-anchor="middle" fill="#fff" font-size="17" font-weight="bold">📲 اپ واقعی + هوشمند</text>
<rect x="1195" y="870" width="205" height="30" rx="15" fill="#ffffff14" stroke="#8b5cf6" stroke-width="1" opacity=".95"/>
<text x="1297" y="890" text-anchor="middle" fill="#eceafb" font-size="13">نصب + شورتکات + بج</text>
<rect x="960" y="870" width="205" height="30" rx="15" fill="#ffffff14" stroke="#8b5cf6" stroke-width="1" opacity=".95"/>
<text x="1062" y="890" text-anchor="middle" fill="#eceafb" font-size="13">آفلاین + صف ارسال</text>
<rect x="1195" y="910" width="205" height="30" rx="15" fill="#ffffff14" stroke="#8b5cf6" stroke-width="1" opacity=".95"/>
<text x="1297" y="930" text-anchor="middle" fill="#eceafb" font-size="13">قفل اپ</text>
<rect x="960" y="910" width="205" height="30" rx="15" fill="#ffffff14" stroke="#8b5cf6" stroke-width="1" opacity=".95"/>
<text x="1062" y="930" text-anchor="middle" fill="#eceafb" font-size="13">وب‌پوش واقعی</text>
<rect x="1195" y="950" width="205" height="30" rx="15" fill="#ffffff14" stroke="#8b5cf6" stroke-width="1" opacity=".95"/>
<text x="1297" y="970" text-anchor="middle" fill="#eceafb" font-size="13">دیپ‌لینک + شر</text>
<rect x="960" y="950" width="205" height="30" rx="15" fill="#ffffff14" stroke="#8b5cf6" stroke-width="1" opacity=".95"/>
<text x="1062" y="970" text-anchor="middle" fill="#eceafb" font-size="13">دستیار حافظه</text>
<line x1="750" y1="490" x2="1180" y2="1190" stroke="#22c55e" stroke-width="3" opacity=".55"/>
<rect x="945" y="1102" width="470" height="176" rx="18" fill="#ffffff10" stroke="#22c55e" stroke-width="2"/>
<rect x="945" y="1102" width="470" height="46" rx="18" fill="#22c55e" opacity=".9"/>
<rect x="945" y="1130" width="470" height="18" fill="#22c55e" opacity=".9"/>
<text x="1180" y="1132" text-anchor="middle" fill="#fff" font-size="17" font-weight="bold">💎 تماس و پلاس (۹٫۰)</text>
<rect x="1195" y="1160" width="205" height="30" rx="15" fill="#ffffff14" stroke="#22c55e" stroke-width="1" opacity=".95"/>
<text x="1297" y="1180" text-anchor="middle" fill="#eceafb" font-size="13">تماس صوتی/تصویری</text>
<rect x="960" y="1160" width="205" height="30" rx="15" fill="#ffffff14" stroke="#22c55e" stroke-width="1" opacity=".95"/>
<text x="1062" y="1180" text-anchor="middle" fill="#eceafb" font-size="13">ویس و ویدیو در چت</text>
<rect x="1195" y="1200" width="205" height="30" rx="15" fill="#ffffff14" stroke="#22c55e" stroke-width="1" opacity=".95"/>
<text x="1297" y="1220" text-anchor="middle" fill="#eceafb" font-size="13">استیکر اختصاصی</text>
<rect x="960" y="1200" width="205" height="30" rx="15" fill="#ffffff14" stroke="#22c55e" stroke-width="1" opacity=".95"/>
<text x="1062" y="1220" text-anchor="middle" fill="#eceafb" font-size="13">کد فعال‌سازی</text>
<rect x="1195" y="1240" width="205" height="30" rx="15" fill="#ffffff14" stroke="#22c55e" stroke-width="1" opacity=".95"/>
<text x="1297" y="1260" text-anchor="middle" fill="#eceafb" font-size="13">زرین‌پال</text>
<rect x="960" y="1240" width="205" height="30" rx="15" fill="#ffffff14" stroke="#22c55e" stroke-width="1" opacity=".95"/>
<text x="1062" y="1260" text-anchor="middle" fill="#eceafb" font-size="13">فقط-خواندنی + بکاپ</text>
<line x1="750" y1="490" x2="320" y2="170" stroke="#2dd4bf" stroke-width="3" opacity=".55"/>
<rect x="195" y="62" width="250" height="216" rx="18" fill="#ffffff10" stroke="#2dd4bf" stroke-width="2"/>
<rect x="195" y="62" width="250" height="46" rx="18" fill="#2dd4bf" opacity=".9"/>
<rect x="195" y="90" width="250" height="18" fill="#2dd4bf" opacity=".9"/>
<text x="320" y="92" text-anchor="middle" fill="#fff" font-size="17" font-weight="bold">🧠 چت‌یار</text>
<rect x="218" y="120" width="205" height="30" rx="15" fill="#ffffff14" stroke="#2dd4bf" stroke-width="1" opacity=".95"/>
<text x="320" y="140" text-anchor="middle" fill="#eceafb" font-size="13">۱۶ ابزار فارسی</text>
<rect x="218" y="160" width="205" height="30" rx="15" fill="#ffffff14" stroke="#2dd4bf" stroke-width="1" opacity=".95"/>
<text x="320" y="180" text-anchor="middle" fill="#eceafb" font-size="13">مغز رابطه</text>
<rect x="218" y="200" width="205" height="30" rx="15" fill="#ffffff14" stroke="#2dd4bf" stroke-width="1" opacity=".95"/>
<text x="320" y="220" text-anchor="middle" fill="#eceafb" font-size="13">استریم + حافظه</text>
<rect x="218" y="240" width="205" height="30" rx="15" fill="#ffffff14" stroke="#2dd4bf" stroke-width="1" opacity=".95"/>
<text x="320" y="260" text-anchor="middle" fill="#eceafb" font-size="13">شبیه‌ساز کرش</text>
<line x1="750" y1="490" x2="320" y2="450" stroke="#fb7185" stroke-width="3" opacity=".55"/>
<rect x="195" y="362" width="250" height="176" rx="18" fill="#ffffff10" stroke="#fb7185" stroke-width="2"/>
<rect x="195" y="362" width="250" height="46" rx="18" fill="#fb7185" opacity=".9"/>
<rect x="195" y="390" width="250" height="18" fill="#fb7185" opacity=".9"/>
<text x="320" y="392" text-anchor="middle" fill="#fff" font-size="17" font-weight="bold">🔥 کشف و ساخت</text>
<rect x="218" y="420" width="205" height="30" rx="15" fill="#ffffff14" stroke="#fb7185" stroke-width="1" opacity=".95"/>
<text x="320" y="440" text-anchor="middle" fill="#eceafb" font-size="13">کشف نزدیک‌ها</text>
<rect x="218" y="460" width="205" height="30" rx="15" fill="#ffffff14" stroke="#fb7185" stroke-width="1" opacity=".95"/>
<text x="320" y="480" text-anchor="middle" fill="#eceafb" font-size="13">مچ + چت + دوز</text>
<rect x="218" y="500" width="205" height="30" rx="15" fill="#ffffff14" stroke="#fb7185" stroke-width="1" opacity=".95"/>
<text x="320" y="520" text-anchor="middle" fill="#eceafb" font-size="13">دعوت‌نامه شخصی</text>
<line x1="750" y1="490" x2="320" y2="760" stroke="#a78bfa" stroke-width="3" opacity=".55"/>
<rect x="195" y="652" width="250" height="216" rx="18" fill="#ffffff10" stroke="#a78bfa" stroke-width="2"/>
<rect x="195" y="652" width="250" height="46" rx="18" fill="#a78bfa" opacity=".9"/>
<rect x="195" y="680" width="250" height="18" fill="#a78bfa" opacity=".9"/>
<text x="320" y="682" text-anchor="middle" fill="#fff" font-size="17" font-weight="bold">🌙 ما + بک‌اند</text>
<rect x="218" y="710" width="205" height="30" rx="15" fill="#ffffff14" stroke="#a78bfa" stroke-width="1" opacity=".95"/>
<text x="320" y="730" text-anchor="middle" fill="#eceafb" font-size="13">چرخه و PMS</text>
<rect x="218" y="750" width="205" height="30" rx="15" fill="#ffffff14" stroke="#a78bfa" stroke-width="1" opacity=".95"/>
<text x="320" y="770" text-anchor="middle" fill="#eceafb" font-size="13">زبان عشق</text>
<rect x="218" y="790" width="205" height="30" rx="15" fill="#ffffff14" stroke="#a78bfa" stroke-width="1" opacity=".95"/>
<text x="320" y="810" text-anchor="middle" fill="#eceafb" font-size="13">حل اختلاف دونفره</text>
<rect x="218" y="830" width="205" height="30" rx="15" fill="#ffffff14" stroke="#a78bfa" stroke-width="1" opacity=".95"/>
<text x="320" y="850" text-anchor="middle" fill="#eceafb" font-size="13">KV + پوش + سیگنالینگ</text>
<rect x="620" y="442" width="260" height="96" rx="24" fill="url(#cc)"/>
<text x="750" y="482" text-anchor="middle" fill="#fff" font-size="26" font-weight="bold">باهم 💑</text>
<text x="750" y="512" text-anchor="middle" fill="#ffffffdd" font-size="14">از مخ زدن تا ما شدن</text>
</svg>
